
<svg width="800" height="600" xmlns="http://www.w3.org/2000/svg">
  <!-- Admin Working Modules for Tech Learn Platform -->
  
  <!-- Arrow Marker Definition (must be defined before use) -->
  <defs>
    <marker id="arrow" markerWidth="10" markerHeight="10" refX="9" refY="3" orient="auto" markerUnits="strokeWidth">
      <path d="M0,0 L0,6 L9,3 z" fill="#333" />
    </marker>
  </defs>
  
  <!-- Title -->
  <text x="400" y="30" font-family="Arial" font-size="24" text-anchor="middle" fill="#1A1F2C">Tech Learn Admin Workflow</text>
  
  <!-- Start Node -->
  <circle cx="400" cy="80" r="25" fill="#E0F2FE" stroke="#0EA5E9" stroke-width="2"/>
  <text x="400" y="85" font-family="Arial" font-size="12" text-anchor="middle" fill="#1A1F2C">Start</text>
  
  <!-- Admin Login -->
  <rect x="325" y="130" width="150" height="60" fill="#E0E7FF" stroke="#6366F1" stroke-width="2" rx="5" ry="5"/>
  <text x="400" y="165" font-family="Arial" font-size="14" text-anchor="middle" fill="#1A1F2C">Admin Login</text>
  
  <!-- Admin Dashboard -->
  <rect x="325" y="220" width="150" height="60" fill="#DBEAFE" stroke="#3B82F6" stroke-width="2" rx="5" ry="5"/>
  <text x="400" y="255" font-family="Arial" font-size="14" text-anchor="middle" fill="#1A1F2C">Admin Dashboard</text>
  
  <!-- Course Management Branch -->
  <rect x="100" y="320" width="150" height="60" fill="#F0FDF4" stroke="#22C55E" stroke-width="2" rx="5" ry="5"/>
  <text x="175" y="355" font-family="Arial" font-size="14" text-anchor="middle" fill="#1A1F2C">Course Management</text>
  
  <!-- User Management Branch -->
  <rect x="325" y="320" width="150" height="60" fill="#FFEDD5" stroke="#F97316" stroke-width="2" rx="5" ry="5"/>
  <text x="400" y="355" font-family="Arial" font-size="14" text-anchor="middle" fill="#1A1F2C">User Management</text>
  
  <!-- System Settings Branch -->
  <rect x="550" y="320" width="150" height="60" fill="#FCE7F3" stroke="#EC4899" stroke-width="2" rx="5" ry="5"/>
  <text x="625" y="355" font-family="Arial" font-size="14" text-anchor="middle" fill="#1A1F2C">System Settings</text>
  
  <!-- Course Actions -->
  <rect x="60" y="410" width="100" height="40" fill="#F0FDF4" stroke="#22C55E" stroke-width="1" rx="5" ry="5"/>
  <text x="110" y="435" font-family="Arial" font-size="12" text-anchor="middle" fill="#1A1F2C">Create Course</text>
  
  <rect x="60" y="470" width="100" height="40" fill="#F0FDF4" stroke="#22C55E" stroke-width="1" rx="5" ry="5"/>
  <text x="110" y="495" font-family="Arial" font-size="12" text-anchor="middle" fill="#1A1F2C">Edit Course</text>
  
  <rect x="60" y="530" width="100" height="40" fill="#F0FDF4" stroke="#22C55E" stroke-width="1" rx="5" ry="5"/>
  <text x="110" y="555" font-family="Arial" font-size="12" text-anchor="middle" fill="#1A1F2C">Delete Course</text>
  
  <rect x="190" y="410" width="100" height="40" fill="#F0FDF4" stroke="#22C55E" stroke-width="1" rx="5" ry="5"/>
  <text x="240" y="435" font-family="Arial" font-size="12" text-anchor="middle" fill="#1A1F2C">Upload Content</text>
  
  <rect x="190" y="470" width="100" height="40" fill="#F0FDF4" stroke="#22C55E" stroke-width="1" rx="5" ry="5"/>
  <text x="240" y="495" font-family="Arial" font-size="12" text-anchor="middle" fill="#1A1F2C">Create Quiz</text>
  
  <rect x="190" y="530" width="100" height="40" fill="#F0FDF4" stroke="#22C55E" stroke-width="1" rx="5" ry="5"/>
  <text x="240" y="555" font-family="Arial" font-size="12" text-anchor="middle" fill="#1A1F2C">Course Reports</text>
  
  <!-- User Actions -->
  <rect x="285" y="410" width="100" height="40" fill="#FFEDD5" stroke="#F97316" stroke-width="1" rx="5" ry="5"/>
  <text x="335" y="435" font-family="Arial" font-size="12" text-anchor="middle" fill="#1A1F2C">Add User</text>
  
  <rect x="285" y="470" width="100" height="40" fill="#FFEDD5" stroke="#F97316" stroke-width="1" rx="5" ry="5"/>
  <text x="335" y="495" font-family="Arial" font-size="12" text-anchor="middle" fill="#1A1F2C">Manage Roles</text>
  
  <rect x="285" y="530" width="100" height="40" fill="#FFEDD5" stroke="#F97316" stroke-width="1" rx="5" ry="5"/>
  <text x="335" y="555" font-family="Arial" font-size="12" text-anchor="middle" fill="#1A1F2C">User Reports</text>
  
  <rect x="415" y="410" width="100" height="40" fill="#FFEDD5" stroke="#F97316" stroke-width="1" rx="5" ry="5"/>
  <text x="465" y="435" font-family="Arial" font-size="12" text-anchor="middle" fill="#1A1F2C">Reset Password</text>
  
  <rect x="415" y="470" width="100" height="40" fill="#FFEDD5" stroke="#F97316" stroke-width="1" rx="5" ry="5"/>
  <text x="465" y="495" font-family="Arial" font-size="12" text-anchor="middle" fill="#1A1F2C">View Enrollments</text>
  
  <rect x="415" y="530" width="100" height="40" fill="#FFEDD5" stroke="#F97316" stroke-width="1" rx="5" ry="5"/>
  <text x="465" y="555" font-family="Arial" font-size="12" text-anchor="middle" fill="#1A1F2C">Manage Certs</text>
  
  <!-- System Actions -->
  <rect x="540" y="410" width="100" height="40" fill="#FCE7F3" stroke="#EC4899" stroke-width="1" rx="5" ry="5"/>
  <text x="590" y="435" font-family="Arial" font-size="12" text-anchor="middle" fill="#1A1F2C">Site Settings</text>
  
  <rect x="540" y="470" width="100" height="40" fill="#FCE7F3" stroke="#EC4899" stroke-width="1" rx="5" ry="5"/>
  <text x="590" y="495" font-family="Arial" font-size="12" text-anchor="middle" fill="#1A1F2C">Email Config</text>
  
  <rect x="540" y="530" width="100" height="40" fill="#FCE7F3" stroke="#EC4899" stroke-width="1" rx="5" ry="5"/>
  <text x="590" y="555" font-family="Arial" font-size="12" text-anchor="middle" fill="#1A1F2C">Backup/Restore</text>
  
  <rect x="660" y="410" width="100" height="40" fill="#FCE7F3" stroke="#EC4899" stroke-width="1" rx="5" ry="5"/>
  <text x="710" y="435" font-family="Arial" font-size="12" text-anchor="middle" fill="#1A1F2C">API Settings</text>
  
  <rect x="660" y="470" width="100" height="40" fill="#FCE7F3" stroke="#EC4899" stroke-width="1" rx="5" ry="5"/>
  <text x="710" y="495" font-family="Arial" font-size="12" text-anchor="middle" fill="#1A1F2C">AI Config</text>
  
  <rect x="660" y="530" width="100" height="40" fill="#FCE7F3" stroke="#EC4899" stroke-width="1" rx="5" ry="5"/>
  <text x="710" y="555" font-family="Arial" font-size="12" text-anchor="middle" fill="#1A1F2C">System Reports</text>
  
  <!-- Connections -->
  <line x1="400" y1="105" x2="400" y2="130" stroke="#333" stroke-width="1.5" marker-end="url(#arrow)"/>
  <line x1="400" y1="190" x2="400" y2="220" stroke="#333" stroke-width="1.5" marker-end="url(#arrow)"/>
  
  <line x1="400" y1="280" x2="400" y2="320" stroke="#333" stroke-width="1.5" marker-end="url(#arrow)"/>
  <line x1="400" y1="280" x2="175" y2="320" stroke="#333" stroke-width="1.5" marker-end="url(#arrow)"/>
  <line x1="400" y1="280" x2="625" y2="320" stroke="#333" stroke-width="1.5" marker-end="url(#arrow)"/>
  
  <line x1="175" y1="380" x2="175" y2="405" stroke="#22C55E" stroke-width="1.5" marker-end="url(#arrow)"/>
  <line x1="400" y1="380" x2="400" y2="405" stroke="#F97316" stroke-width="1.5" marker-end="url(#arrow)"/>
  <line x1="625" y1="380" x2="625" y2="405" stroke="#EC4899" stroke-width="1.5" marker-end="url(#arrow)"/>
  
  <line x1="110" y1="380" x2="110" y2="410" stroke="#22C55E" stroke-width="1" marker-end="url(#arrow)"/>
  <line x1="110" y1="450" x2="110" y2="470" stroke="#22C55E" stroke-width="1" marker-end="url(#arrow)"/>
  <line x1="110" y1="510" x2="110" y2="530" stroke="#22C55E" stroke-width="1" marker-end="url(#arrow)"/>
  
  <line x1="240" y1="380" x2="240" y2="410" stroke="#22C55E" stroke-width="1" marker-end="url(#arrow)"/>
  <line x1="240" y1="450" x2="240" y2="470" stroke="#22C55E" stroke-width="1" marker-end="url(#arrow)"/>
  <line x1="240" y1="510" x2="240" y2="530" stroke="#22C55E" stroke-width="1" marker-end="url(#arrow)"/>
  
  <line x1="335" y1="380" x2="335" y2="410" stroke="#F97316" stroke-width="1" marker-end="url(#arrow)"/>
  <line x1="335" y1="450" x2="335" y2="470" stroke="#F97316" stroke-width="1" marker-end="url(#arrow)"/>
  <line x1="335" y1="510" x2="335" y2="530" stroke="#F97316" stroke-width="1" marker-end="url(#arrow)"/>
  
  <line x1="465" y1="380" x2="465" y2="410" stroke="#F97316" stroke-width="1" marker-end="url(#arrow)"/>
  <line x1="465" y1="450" x2="465" y2="470" stroke="#F97316" stroke-width="1" marker-end="url(#arrow)"/>
  <line x1="465" y1="510" x2="465" y2="530" stroke="#F97316" stroke-width="1" marker-end="url(#arrow)"/>
  
  <line x1="590" y1="380" x2="590" y2="410" stroke="#EC4899" stroke-width="1" marker-end="url(#arrow)"/>
  <line x1="590" y1="450" x2="590" y2="470" stroke="#EC4899" stroke-width="1" marker-end="url(#arrow)"/>
  <line x1="590" y1="510" x2="590" y2="530" stroke="#EC4899" stroke-width="1" marker-end="url(#arrow)"/>
  
  <line x1="710" y1="380" x2="710" y2="410" stroke="#EC4899" stroke-width="1" marker-end="url(#arrow)"/>
  <line x1="710" y1="450" x2="710" y2="470" stroke="#EC4899" stroke-width="1" marker-end="url(#arrow)"/>
  <line x1="710" y1="510" x2="710" y2="530" stroke="#EC4899" stroke-width="1" marker-end="url(#arrow)"/>
</svg>
