
<svg width="800" height="600" xmlns="http://www.w3.org/2000/svg">
  <!-- DFD for Tech Learn Platform -->
  
  <!-- Title -->
  <text x="400" y="30" font-family="Arial" font-size="24" text-anchor="middle" fill="#1A1F2C">Tech Learn Data Flow Diagram</text>
  
  <!-- Arrow Marker Definition (must be defined before use) -->
  <defs>
    <marker id="arrow" markerWidth="10" markerHeight="10" refX="9" refY="3" orient="auto" markerUnits="strokeWidth">
      <path d="M0,0 L0,6 L9,3 z" fill="#333" />
    </marker>
  </defs>
  
  <!-- External Entities (Squares) -->
  <!-- Student -->
  <rect x="50" y="100" width="120" height="60" fill="#E5DEFF" stroke="#8B5CF6" stroke-width="2" rx="5" ry="5"/>
  <text x="110" y="135" font-family="Arial" font-size="14" text-anchor="middle" fill="#1A1F2C">Student</text>
  
  <!-- Instructor -->
  <rect x="50" y="300" width="120" height="60" fill="#D3E4FD" stroke="#0EA5E9" stroke-width="2" rx="5" ry="5"/>
  <text x="110" y="335" font-family="Arial" font-size="14" text-anchor="middle" fill="#1A1F2C">Instructor</text>
  
  <!-- Admin -->
  <rect x="50" y="500" width="120" height="60" fill="#FDE1D3" stroke="#F97316" stroke-width="2" rx="5" ry="5"/>
  <text x="110" y="535" font-family="Arial" font-size="14" text-anchor="middle" fill="#1A1F2C">Administrator</text>
  
  <!-- Processes (Circles) -->
  <!-- User Authentication -->
  <circle cx="250" cy="130" r="50" fill="#F6F6F7" stroke="#9b87f5" stroke-width="2"/>
  <text x="250" y="125" font-family="Arial" font-size="12" text-anchor="middle" fill="#1A1F2C">1.0</text>
  <text x="250" y="145" font-family="Arial" font-size="12" text-anchor="middle" fill="#1A1F2C">User</text>
  <text x="250" y="160" font-family="Arial" font-size="12" text-anchor="middle" fill="#1A1F2C">Authentication</text>
  
  <!-- Course Management -->
  <circle cx="400" cy="250" r="50" fill="#F6F6F7" stroke="#9b87f5" stroke-width="2"/>
  <text x="400" y="245" font-family="Arial" font-size="12" text-anchor="middle" fill="#1A1F2C">2.0</text>
  <text x="400" y="265" font-family="Arial" font-size="12" text-anchor="middle" fill="#1A1F2C">Course</text>
  <text x="400" y="280" font-family="Arial" font-size="12" text-anchor="middle" fill="#1A1F2C">Management</text>
  
  <!-- Progress Tracking -->
  <circle cx="250" cy="380" r="50" fill="#F6F6F7" stroke="#9b87f5" stroke-width="2"/>
  <text x="250" y="375" font-family="Arial" font-size="12" text-anchor="middle" fill="#1A1F2C">3.0</text>
  <text x="250" y="395" font-family="Arial" font-size="12" text-anchor="middle" fill="#1A1F2C">Progress</text>
  <text x="250" y="410" font-family="Arial" font-size="12" text-anchor="middle" fill="#1A1F2C">Tracking</text>
  
  <!-- Certificate Generation -->
  <circle cx="550" cy="380" r="50" fill="#F6F6F7" stroke="#9b87f5" stroke-width="2"/>
  <text x="550" y="375" font-family="Arial" font-size="12" text-anchor="middle" fill="#1A1F2C">4.0</text>
  <text x="550" y="395" font-family="Arial" font-size="12" text-anchor="middle" fill="#1A1F2C">Certificate</text>
  <text x="550" y="410" font-family="Arial" font-size="12" text-anchor="middle" fill="#1A1F2C">Generation</text>
  
  <!-- AI Assistant -->
  <circle cx="550" cy="130" r="50" fill="#F6F6F7" stroke="#9b87f5" stroke-width="2"/>
  <text x="550" y="125" font-family="Arial" font-size="12" text-anchor="middle" fill="#1A1F2C">5.0</text>
  <text x="550" y="145" font-family="Arial" font-size="12" text-anchor="middle" fill="#1A1F2C">AI Learning</text>
  <text x="550" y="160" font-family="Arial" font-size="12" text-anchor="middle" fill="#1A1F2C">Assistant</text>
  
  <!-- Data Stores (Open Rectangles) -->
  <!-- User Data -->
  <rect x="200" y="500" width="120" height="50" fill="#F1F0FB" stroke="#8E9196" stroke-width="2"/>
  <line x1="200" y1="520" x2="320" y2="520" stroke="#8E9196" stroke-width="2"/>
  <text x="205" y="515" font-family="Arial" font-size="12" fill="#1A1F2C">D1</text>
  <text x="260" y="540" font-family="Arial" font-size="12" text-anchor="middle" fill="#1A1F2C">Users</text>
  
  <!-- Course Data -->
  <rect x="400" y="500" width="120" height="50" fill="#F1F0FB" stroke="#8E9196" stroke-width="2"/>
  <line x1="400" y1="520" x2="520" y2="520" stroke="#8E9196" stroke-width="2"/>
  <text x="405" y="515" font-family="Arial" font-size="12" fill="#1A1F2C">D2</text>
  <text x="460" y="540" font-family="Arial" font-size="12" text-anchor="middle" fill="#1A1F2C">Courses</text>
  
  <!-- Progress Data -->
  <rect x="600" y="500" width="120" height="50" fill="#F1F0FB" stroke="#8E9196" stroke-width="2"/>
  <line x1="600" y1="520" x2="720" y2="520" stroke="#8E9196" stroke-width="2"/>
  <text x="605" y="515" font-family="Arial" font-size="12" fill="#1A1F2C">D3</text>
  <text x="660" y="540" font-family="Arial" font-size="12" text-anchor="middle" fill="#1A1F2C">Progress</text>
  
  <!-- Data Flows (Arrows) -->
  <!-- Student to Authentication -->
  <line x1="170" y1="130" x2="200" y2="130" stroke="#333" stroke-width="1.5" marker-end="url(#arrow)"/>
  <text x="185" y="120" font-family="Arial" font-size="10" fill="#333">Login/Register</text>
  
  <!-- Authentication to User Data -->
  <line x1="250" y1="180" x2="250" y2="500" stroke="#333" stroke-width="1.5" marker-end="url(#arrow)"/>
  <text x="260" y="340" font-family="Arial" font-size="10" text-anchor="start" fill="#333">Verify/Store</text>
  
  <!-- Authentication to Student -->
  <line x1="200" y1="110" x2="170" y2="110" stroke="#333" stroke-width="1.5" marker-end="url(#arrow)"/>
  <text x="185" y="100" font-family="Arial" font-size="10" fill="#333">Auth Token</text>
  
  <!-- Student to Course Management -->
  <path d="M 170 130 Q 300 180 350 230" fill="none" stroke="#333" stroke-width="1.5" marker-end="url(#arrow)"/>
  <text x="240" y="185" font-family="Arial" font-size="10" fill="#333">Enroll/View</text>
  
  <!-- Instructor to Course Management -->
  <line x1="170" y1="310" x2="350" y2="260" stroke="#333" stroke-width="1.5" marker-end="url(#arrow)"/>
  <text x="240" y="270" font-family="Arial" font-size="10" fill="#333">Create/Edit</text>
  
  <!-- Course Management to Course Data -->
  <line x1="400" y1="300" x2="460" y2="500" stroke="#333" stroke-width="1.5" marker-end="url(#arrow)"/>
  <text x="420" y="400" font-family="Arial" font-size="10" fill="#333">Store</text>
  
  <!-- Course Data to Course Management -->
  <line x1="470" y1="500" x2="410" y2="300" stroke="#333" stroke-width="1.5" marker-end="url(#arrow)"/>
  <text x="450" y="400" font-family="Arial" font-size="10" fill="#333">Retrieve</text>
  
  <!-- Student to Progress Tracking -->
  <path d="M 170 140 Q 180 300 200 340" fill="none" stroke="#333" stroke-width="1.5" marker-end="url(#arrow)"/>
  <text x="180" y="240" font-family="Arial" font-size="10" fill="#333">Activity Data</text>
  
  <!-- Progress Tracking to Progress Data -->
  <line x1="290" y1="410" x2="600" y2="520" stroke="#333" stroke-width="1.5" marker-end="url(#arrow)"/>
  <text x="450" y="450" font-family="Arial" font-size="10" fill="#333">Store Progress</text>
  
  <!-- Progress Tracking to Student -->
  <path d="M 200 340 Q 160 280 170 140" fill="none" stroke="#333" stroke-width="1.5" marker-end="url(#arrow)"/>
  <text x="150" y="240" font-family="Arial" font-size="10" fill="#333">Progress Updates</text>
  
  <!-- Progress Tracking to Certificate Generation -->
  <line x1="300" y1="380" x2="500" y2="380" stroke="#333" stroke-width="1.5" marker-end="url(#arrow)"/>
  <text x="400" y="370" font-family="Arial" font-size="10" fill="#333">Completion Data</text>
  
  <!-- Certificate Generation to Student -->
  <path d="M 520 340 Q 350 200 170 120" fill="none" stroke="#333" stroke-width="1.5" marker-end="url(#arrow)"/>
  <text x="350" y="220" font-family="Arial" font-size="10" fill="#333">Certificate</text>
  
  <!-- Student to AI Assistant -->
  <path d="M 170 120 Q 350 80 500 110" fill="none" stroke="#333" stroke-width="1.5" marker-end="url(#arrow)"/>
  <text x="350" y="90" font-family="Arial" font-size="10" fill="#333">Questions</text>
  
  <!-- AI Assistant to Student -->
  <path d="M 500 110 Q 350 60 170 100" fill="none" stroke="#333" stroke-width="1.5" marker-end="url(#arrow)"/>
  <text x="350" y="65" font-family="Arial" font-size="10" fill="#333">Guidance</text>
  
  <!-- Admin to User Data -->
  <line x1="170" y1="530" x2="200" y2="530" stroke="#333" stroke-width="1.5" marker-end="url(#arrow)"/>
  <text x="185" y="550" font-family="Arial" font-size="10" fill="#333">Manage</text>
</svg>
